<svg data-v-6763dd20="" xmlns="http://www.w3.org/2000/svg" width="200" height="70" viewBox="0 0 95 80" preserveAspectRatio="xMidYMid meet"><!-- Background --><rect data-v-6763dd20="" width="95" height="80" fill="white"></rect><!-- Bars --><rect data-v-6763dd20="" x="0" y="0" width="2.1052631578947367" height="45" fill="#000000"></rect><rect data-v-6763dd20="" x="2.1052631578947367" y="0" width="2.1052631578947367" height="45" fill="transparent"></rect><rect data-v-6763dd20="" x="4.2105263157894735" y="0" width="2.1052631578947367" height="45" fill="#000000"></rect><rect data-v-6763dd20="" x="6.315789473684211" y="0" width="2.1052631578947367" height="50" fill="transparent"></rect><rect data-v-6763dd20="" x="8.421052631578947" y="0" width="2.1052631578947367" height="50" fill="transparent"></rect><rect data-v-6763dd20="" x="10.526315789473683" y="0" width="2.1052631578947367" height="50" fill="transparent"></rect><rect data-v-6763dd20="" x="12.631578947368421" y="0" width="2.1052631578947367" height="50" fill="#000000"></rect><rect data-v-6763dd20="" x="14.736842105263158" y="0" width="2.1052631578947367" height="50" fill="#000000"></rect><rect data-v-6763dd20="" x="16.842105263157894" y="0" width="2.1052631578947367" height="50" fill="transparent"></rect><rect data-v-6763dd20="" x="18.94736842105263" y="0" width="2.1052631578947367" height="50" fill="#000000"></rect><rect data-v-6763dd20="" x="21.052631578947366" y="0" width="2.1052631578947367" height="50" fill="transparent"></rect><rect data-v-6763dd20="" x="23.157894736842103" y="0" width="2.1052631578947367" height="50" fill="#000000"></rect><rect data-v-6763dd20="" x="25.263157894736842" y="0" width="2.1052631578947367" height="50" fill="transparent"></rect><rect data-v-6763dd20="" x="27.36842105263158" y="0" width="2.1052631578947367" height="50" fill="transparent"></rect><rect data-v-6763dd20="" x="29.473684210526315" y="0" width="2.1052631578947367" height="50" fill="#000000"></rect><rect data-v-6763dd20="" x="31.57894736842105" y="0" width="2.1052631578947367" height="50" fill="#000000"></rect><rect data-v-6763dd20="" x="33.68421052631579" y="0" width="2.1052631578947367" height="50" fill="#000000"></rect><rect data-v-6763dd20="" x="35.78947368421053" y="0" width="2.1052631578947367" height="50" fill="transparent"></rect><rect data-v-6763dd20="" x="37.89473684210526" y="0" width="2.1052631578947367" height="50" fill="#000000"></rect><rect data-v-6763dd20="" x="40" y="0" width="2.1052631578947367" height="50" fill="transparent"></rect><rect data-v-6763dd20="" x="42.10526315789473" y="0" width="2.1052631578947367" height="50" fill="#000000"></rect><rect data-v-6763dd20="" x="44.21052631578947" y="0" width="2.1052631578947367" height="50" fill="#000000"></rect><rect data-v-6763dd20="" x="46.315789473684205" y="0" width="2.1052631578947367" height="50" fill="#000000"></rect><rect data-v-6763dd20="" x="48.421052631578945" y="0" width="2.1052631578947367" height="50" fill="#000000"></rect><rect data-v-6763dd20="" x="50.526315789473685" y="0" width="2.1052631578947367" height="50" fill="transparent"></rect><rect data-v-6763dd20="" x="52.63157894736842" y="0" width="2.1052631578947367" height="50" fill="#000000"></rect><rect data-v-6763dd20="" x="54.73684210526316" y="0" width="2.1052631578947367" height="50" fill="#000000"></rect><rect data-v-6763dd20="" x="56.84210526315789" y="0" width="2.1052631578947367" height="50" fill="#000000"></rect><rect data-v-6763dd20="" x="58.94736842105263" y="0" width="2.1052631578947367" height="50" fill="#000000"></rect><rect data-v-6763dd20="" x="61.05263157894736" y="0" width="2.1052631578947367" height="50" fill="transparent"></rect><rect data-v-6763dd20="" x="63.1578947368421" y="0" width="2.1052631578947367" height="50" fill="#000000"></rect><rect data-v-6763dd20="" x="65.26315789473684" y="0" width="2.1052631578947367" height="50" fill="transparent"></rect><rect data-v-6763dd20="" x="67.36842105263158" y="0" width="2.1052631578947367" height="50" fill="transparent"></rect><rect data-v-6763dd20="" x="69.47368421052632" y="0" width="2.1052631578947367" height="50" fill="transparent"></rect><rect data-v-6763dd20="" x="71.57894736842105" y="0" width="2.1052631578947367" height="50" fill="#000000"></rect><rect data-v-6763dd20="" x="73.68421052631578" y="0" width="2.1052631578947367" height="50" fill="transparent"></rect><rect data-v-6763dd20="" x="75.78947368421052" y="0" width="2.1052631578947367" height="50" fill="transparent"></rect><rect data-v-6763dd20="" x="77.89473684210526" y="0" width="2.1052631578947367" height="50" fill="#000000"></rect><rect data-v-6763dd20="" x="80" y="0" width="2.1052631578947367" height="50" fill="transparent"></rect><rect data-v-6763dd20="" x="82.10526315789473" y="0" width="2.1052631578947367" height="50" fill="#000000"></rect><rect data-v-6763dd20="" x="84.21052631578947" y="0" width="2.1052631578947367" height="50" fill="#000000"></rect><rect data-v-6763dd20="" x="86.3157894736842" y="0" width="2.1052631578947367" height="50" fill="transparent"></rect><rect data-v-6763dd20="" x="88.42105263157895" y="0" width="2.1052631578947367" height="50" fill="transparent"></rect><rect data-v-6763dd20="" x="90.52631578947368" y="0" width="2.1052631578947367" height="50" fill="#000000"></rect><rect data-v-6763dd20="" x="92.63157894736841" y="0" width="2.1052631578947367" height="50" fill="#000000"></rect><rect data-v-6763dd20="" x="94.73684210526315" y="0" width="2.1052631578947367" height="45" fill="transparent"></rect><rect data-v-6763dd20="" x="96.84210526315789" y="0" width="2.1052631578947367" height="45" fill="#000000"></rect><rect data-v-6763dd20="" x="98.94736842105263" y="0" width="2.1052631578947367" height="45" fill="transparent"></rect><rect data-v-6763dd20="" x="101.05263157894737" y="0" width="2.1052631578947367" height="45" fill="#000000"></rect><rect data-v-6763dd20="" x="103.1578947368421" y="0" width="2.1052631578947367" height="45" fill="transparent"></rect><rect data-v-6763dd20="" x="105.26315789473684" y="0" width="2.1052631578947367" height="50" fill="#000000"></rect><rect data-v-6763dd20="" x="107.36842105263158" y="0" width="2.1052631578947367" height="50" fill="transparent"></rect><rect data-v-6763dd20="" x="109.47368421052632" y="0" width="2.1052631578947367" height="50" fill="transparent"></rect><rect data-v-6763dd20="" x="111.57894736842104" y="0" width="2.1052631578947367" height="50" fill="transparent"></rect><rect data-v-6763dd20="" x="113.68421052631578" y="0" width="2.1052631578947367" height="50" fill="transparent"></rect><rect data-v-6763dd20="" x="115.78947368421052" y="0" width="2.1052631578947367" height="50" fill="#000000"></rect><rect data-v-6763dd20="" x="117.89473684210526" y="0" width="2.1052631578947367" height="50" fill="transparent"></rect><rect data-v-6763dd20="" x="120" y="0" width="2.1052631578947367" height="50" fill="#000000"></rect><rect data-v-6763dd20="" x="122.10526315789473" y="0" width="2.1052631578947367" height="50" fill="transparent"></rect><rect data-v-6763dd20="" x="124.21052631578947" y="0" width="2.1052631578947367" height="50" fill="transparent"></rect><rect data-v-6763dd20="" x="126.3157894736842" y="0" width="2.1052631578947367" height="50" fill="transparent"></rect><rect data-v-6763dd20="" x="128.42105263157893" y="0" width="2.1052631578947367" height="50" fill="transparent"></rect><rect data-v-6763dd20="" x="130.52631578947367" y="0" width="2.1052631578947367" height="50" fill="#000000"></rect><rect data-v-6763dd20="" x="132.6315789473684" y="0" width="2.1052631578947367" height="50" fill="transparent"></rect><rect data-v-6763dd20="" x="134.73684210526315" y="0" width="2.1052631578947367" height="50" fill="#000000"></rect><rect data-v-6763dd20="" x="136.8421052631579" y="0" width="2.1052631578947367" height="50" fill="transparent"></rect><rect data-v-6763dd20="" x="138.94736842105263" y="0" width="2.1052631578947367" height="50" fill="transparent"></rect><rect data-v-6763dd20="" x="141.05263157894737" y="0" width="2.1052631578947367" height="50" fill="transparent"></rect><rect data-v-6763dd20="" x="143.1578947368421" y="0" width="2.1052631578947367" height="50" fill="transparent"></rect><rect data-v-6763dd20="" x="145.26315789473682" y="0" width="2.1052631578947367" height="50" fill="#000000"></rect><rect data-v-6763dd20="" x="147.36842105263156" y="0" width="2.1052631578947367" height="50" fill="transparent"></rect><rect data-v-6763dd20="" x="149.4736842105263" y="0" width="2.1052631578947367" height="50" fill="#000000"></rect><rect data-v-6763dd20="" x="151.57894736842104" y="0" width="2.1052631578947367" height="50" fill="#000000"></rect><rect data-v-6763dd20="" x="153.68421052631578" y="0" width="2.1052631578947367" height="50" fill="#000000"></rect><rect data-v-6763dd20="" x="155.78947368421052" y="0" width="2.1052631578947367" height="50" fill="transparent"></rect><rect data-v-6763dd20="" x="157.89473684210526" y="0" width="2.1052631578947367" height="50" fill="#000000"></rect><rect data-v-6763dd20="" x="160" y="0" width="2.1052631578947367" height="50" fill="transparent"></rect><rect data-v-6763dd20="" x="162.10526315789474" y="0" width="2.1052631578947367" height="50" fill="transparent"></rect><rect data-v-6763dd20="" x="164.21052631578945" y="0" width="2.1052631578947367" height="50" fill="#000000"></rect><rect data-v-6763dd20="" x="166.3157894736842" y="0" width="2.1052631578947367" height="50" fill="transparent"></rect><rect data-v-6763dd20="" x="168.42105263157893" y="0" width="2.1052631578947367" height="50" fill="transparent"></rect><rect data-v-6763dd20="" x="170.52631578947367" y="0" width="2.1052631578947367" height="50" fill="transparent"></rect><rect data-v-6763dd20="" x="172.6315789473684" y="0" width="2.1052631578947367" height="50" fill="transparent"></rect><rect data-v-6763dd20="" x="174.73684210526315" y="0" width="2.1052631578947367" height="50" fill="#000000"></rect><rect data-v-6763dd20="" x="176.8421052631579" y="0" width="2.1052631578947367" height="50" fill="transparent"></rect><rect data-v-6763dd20="" x="178.94736842105263" y="0" width="2.1052631578947367" height="50" fill="#000000"></rect><rect data-v-6763dd20="" x="181.05263157894737" y="0" width="2.1052631578947367" height="50" fill="#000000"></rect><rect data-v-6763dd20="" x="183.15789473684208" y="0" width="2.1052631578947367" height="50" fill="transparent"></rect><rect data-v-6763dd20="" x="185.26315789473682" y="0" width="2.1052631578947367" height="50" fill="transparent"></rect><rect data-v-6763dd20="" x="187.36842105263156" y="0" width="2.1052631578947367" height="50" fill="#000000"></rect><rect data-v-6763dd20="" x="189.4736842105263" y="0" width="2.1052631578947367" height="50" fill="#000000"></rect><rect data-v-6763dd20="" x="191.57894736842104" y="0" width="2.1052631578947367" height="50" fill="transparent"></rect><rect data-v-6763dd20="" x="193.68421052631578" y="0" width="2.1052631578947367" height="45" fill="#000000"></rect><rect data-v-6763dd20="" x="195.78947368421052" y="0" width="2.1052631578947367" height="45" fill="transparent"></rect><rect data-v-6763dd20="" x="197.89473684210526" y="0" width="2.1052631578947367" height="45" fill="#000000"></rect><!-- Text --><text data-v-6763dd20="" x="0" y="58" font-size="6" font-family="monospace" fill="#000000">4</text><text data-v-6763dd20="" x="25" y="58" font-size="6" font-family="monospace" text-anchor="middle" fill="#000000">006381</text><text data-v-6763dd20="" x="70" y="58" font-size="6" font-family="monospace" text-anchor="middle" fill="#000000">333931</text></svg>