<svg width="608" height="151" viewBox="0 0 608 151" fill="none" xmlns="http://www.w3.org/2000/svg">
<path d="M203.755 92.8064C203.755 105.021 202.774 109.379 198.989 113.553C194.703 118.422 186.752 121 176.058 121C166.925 121 161.198 119.506 155.069 115.435V102.136C160.997 106.412 167.025 108.397 174.015 108.397C181.004 108.397 185.771 105.512 186.933 99.9673C187.066 99.3672 187.293 97.8122 187.613 95.3025C187.814 94.2181 187.814 94.0135 188.194 92.2335H187.413C185.851 96.2027 184.79 97.9827 182.847 99.4763C180.223 101.563 175.958 102.852 171.572 102.852C165.263 102.852 159.515 100.172 155.63 95.4048C152.025 91.0469 149.802 83.3949 149.802 75.2519C149.802 66.4133 152.426 59.0682 157.092 54.7922C160.877 51.4163 165.744 49.6363 171.091 49.6363C179.342 49.6363 184.409 53.2168 186.832 60.7459H187.413L186.832 51.6209H203.735V92.8064H203.755ZM167.406 78.014C167.406 85.4614 171.091 90.1262 176.919 90.1262C182.747 90.1262 186.732 85.3591 186.732 77.523C186.732 73.5538 185.951 70.9758 184.109 69.0935C182.466 67.4158 179.743 66.311 177.219 66.311C170.991 66.311 167.406 70.5871 167.406 78.0345V78.014Z" fill="#353535"/>
<path d="M225.763 84.9507C226.244 92.5003 231.311 96.4695 240.043 96.4695C247.913 96.4695 253.161 93.7893 257.046 87.8355H257.727V100.255C251.899 106.515 245.39 109.196 236.258 109.196C219.255 109.196 208.961 97.6767 208.961 78.7104C208.961 59.7442 218.974 49.6166 236.177 49.6166C251.919 49.6166 260.771 59.6419 260.771 77.5238C260.771 80.3063 260.671 81.8817 260.19 84.9711H225.783L225.763 84.9507ZM248.594 72.6339C247.333 66.4755 243.828 63.7953 237.039 63.7953C230.249 63.7953 226.164 66.8642 225.863 72.6339H248.594Z" fill="#353535"/>
<path d="M318.83 52.0918V68.2755H288.289C288.489 73.7382 288.589 77.2164 288.589 83.5589C288.589 88.1214 288.97 90.6994 290.051 92.3975C291.033 93.9934 293.055 94.9755 295.398 94.9755C299.184 94.9755 302.308 93.2978 305.212 89.5127V102.423C300.445 107.292 295.879 109.175 288.89 109.175C281.9 109.175 276.933 106.883 274.31 102.73C271.987 98.9651 271.106 93.8911 271.106 83.8658C271.106 78.1985 271.206 74.6385 271.586 68.7665H262.554V57.0431C270.224 55.2631 276.353 48.1021 278.976 37.9745H288.309V52.0713H318.85L318.83 52.0918Z" fill="#353535"/>
<path d="M333.269 39.3657C333.269 43.4372 329.283 45.8105 322.194 45.8105C315.104 45.8105 311.499 43.4372 311.499 39.2634C311.499 35.0896 315.284 32.7162 322.194 32.7162C329.764 32.7162 333.269 34.8031 333.269 39.3657ZM313.242 52.0917H331.506V107.19H313.242V52.0917Z" fill="#353535"/>
<path d="M463.427 39.3657C463.427 43.4372 459.441 45.8105 452.352 45.8105C445.262 45.8105 441.657 43.4372 441.657 39.2634C441.657 35.0896 445.442 32.7162 452.352 32.7162C459.922 32.7162 463.427 34.8031 463.427 39.3657ZM443.4 52.0917H461.664V107.19H443.4V52.0917Z" fill="#353535"/>
<path d="M340.56 51.6004H357.563V59.1501C357.563 61.4416 357.463 62.9147 356.882 66.6997H357.563C358.624 60.9505 359.806 58.3522 362.61 55.3855C366.114 51.6209 370.781 49.6363 376.308 49.6363C382.537 49.6363 387.784 52.2142 390.488 56.5926C393.011 60.6641 393.311 62.1577 393.311 73.2673V107.21H375.047V80.1009C375.047 73.6561 374.846 71.9579 373.985 70.2802C373.004 68.5002 370.581 67.2112 368.057 67.2112C364.552 67.2112 361.448 69.2981 359.986 72.4694C359.105 74.454 358.825 76.6432 358.825 81.1034V107.21H340.56V51.6004Z" fill="#353535"/>
<path d="M436.369 71.1598C431.702 66.8837 426.936 65.0014 420.727 65.0014C415.761 65.0014 412.857 66.5973 412.857 69.2775C412.857 71.7532 414.799 72.7557 421.108 73.7378C433.064 75.6201 438.311 80.5918 438.311 89.9214C438.311 101.44 429.66 109.174 416.642 109.174C410.333 109.174 405.166 107.783 398.277 104.1V89.0008C403.624 93.6656 408.571 95.6502 414.599 95.6502C419.646 95.6502 422.37 94.1566 422.37 91.3741C422.37 89.9828 421.589 88.7962 420.427 88.2028C419.519 87.7391 416.281 86.9752 410.714 85.9113C401.281 84.029 396.334 78.1571 396.334 68.9297C396.334 57.1244 404.986 49.5748 418.685 49.5748C425.494 49.5748 430.821 51.1706 436.369 54.8329V71.1189V71.1598Z" fill="#353535"/>
<path d="M521.083 107.19H504.28V105.41C504.28 103.732 504.48 101.829 505.161 97.9625H504.58C500.495 105.901 495.728 109.174 488.158 109.174C482.611 109.174 477.364 106.781 473.578 102.627C469.393 98.0648 466.769 88.9193 466.769 79.4055C466.769 68.48 469.773 59.1503 474.94 54.5878C478.525 51.3142 483.011 49.6161 488.058 49.6161C495.348 49.6161 499.534 52.3986 502.918 59.5391H503.399C502.918 55.7745 502.818 54.9765 502.818 52.8896V30H521.083V107.19ZM484.253 80.674C484.253 89.0216 487.557 93.6864 493.686 93.6864C499.814 93.6864 504.48 87.9372 504.48 79.5896C504.48 71.8354 500.695 67.1706 494.467 67.1706C488.238 67.1706 484.273 72.04 484.273 80.674H484.253Z" fill="#353535"/>
<path d="M542.992 84.9507C543.473 92.5003 548.54 96.4695 557.272 96.4695C565.143 96.4695 570.39 93.7893 574.275 87.8355H574.956V100.255C569.128 106.515 562.619 109.196 553.487 109.196C536.484 109.196 526.19 97.6767 526.19 78.7104C526.19 59.7442 536.203 49.6166 553.407 49.6166C569.148 49.6166 578 59.6419 578 77.5238C578 80.3063 577.9 81.8817 577.419 84.9711H543.012L542.992 84.9507ZM565.823 72.6339C564.562 66.4755 561.057 63.7953 554.268 63.7953C547.479 63.7953 543.393 66.8642 543.093 72.6339H565.823Z" fill="#353535"/>
<path fill-rule="evenodd" clip-rule="evenodd" d="M119.406 35.079C124.14 32.392 130.118 33.6277 133.417 37.9681C134.437 39.31 134.225 41.22 132.935 42.3029L97.8336 71.7734L120.938 72.9684C122.581 73.0534 123.88 74.3942 123.92 76.0444C124.231 89.0596 113.991 99.8767 101.015 100.189C100.28 100.208 99.5524 100.193 98.8325 100.148C99.977 103.096 101.209 107.257 102.372 113.146C102.71 114.856 101.603 116.517 99.8997 116.856C98.1963 117.194 96.5418 116.083 96.2042 114.374C94.643 106.468 93.0269 102.221 91.9124 100.035C91.4014 99.0321 91.0117 98.4944 90.8063 98.2457C83.7738 95.222 78.538 88.9078 77.3102 80.885C76.633 80.5317 75.9631 80.0715 75.3375 79.557C73.8586 78.3408 72.3088 76.5573 71.296 74.394C70.2699 72.2025 69.7306 69.4594 70.6254 66.5675C71.2891 64.4221 72.658 62.4664 74.7246 60.7408C69.7678 53.9439 60.3254 52.1475 53.2009 56.7713L53.1694 56.7934C53.1145 56.8316 53.0384 56.884 52.9421 56.9488C52.7496 57.0785 52.476 57.2584 52.1296 57.475C51.4379 57.9078 50.45 58.491 49.2329 59.1153C46.8184 60.3537 43.4051 61.804 39.5532 62.515L39.5562 62.5144C39.2593 62.5695 39.117 62.6879 39.0256 62.8028C38.9117 62.9462 38.8144 63.1747 38.7998 63.4585C38.7852 63.7423 38.8585 63.9789 38.9568 64.1327C39.0355 64.2556 39.1651 64.3887 39.4572 64.4748L39.4695 64.4784C40.3986 64.7562 41.163 64.7195 41.8366 64.4287C42.9903 63.9306 44.3285 64.1694 45.2405 65.036C46.1525 65.9025 46.4632 67.2307 46.0309 68.4142C45.8116 69.0144 45.7079 70.6147 46.1716 72.8975C46.6101 75.056 47.4483 77.2814 48.5217 78.9365L48.5227 78.938L54.17 87.6316L54.1713 87.6335C58.1587 93.7644 56.4799 102.001 50.3881 106.052L50.385 106.054L34.8861 116.403C33.4404 117.369 31.4886 116.975 30.5268 115.524C29.5649 114.073 29.9572 112.114 31.4029 111.148L46.9076 100.795L46.9134 100.791C50.1181 98.6611 51.0091 94.3168 48.905 91.0828L43.2531 82.3822C41.6608 79.9279 40.5713 76.9213 40.01 74.1585C39.7979 73.1138 39.6422 72.011 39.583 70.919C38.9307 70.8468 38.2938 70.7124 37.68 70.5292C30.3957 68.3772 30.96 57.6911 38.4129 56.3079L38.4158 56.3074C41.4674 55.7441 44.2829 54.5661 46.3714 53.4949C47.4058 52.9643 48.238 52.4723 48.8034 52.1186C49.0856 51.942 49.2999 51.8008 49.4381 51.7077C49.5072 51.6612 49.5572 51.6268 49.587 51.6061L49.6158 51.5859C49.6522 51.5598 49.6892 51.5345 49.7267 51.51C59.7872 44.9354 73.199 47.5707 80.0537 57.3695L119.402 35.081M80.3628 64.4418C77.8586 65.984 76.946 67.4205 76.6308 68.4393C76.314 69.4634 76.4481 70.5582 76.9872 71.7096C77.5396 72.8894 78.4466 73.9542 79.3229 74.6748C79.7022 74.9867 80.0152 75.184 80.2204 75.2898C80.877 75.2913 81.5241 75.4992 82.0655 75.8953C82.8271 76.4523 83.2995 77.3228 83.3529 78.2671C83.7258 84.8699 87.7812 90.2024 93.5567 92.5661C93.6439 92.5965 93.7302 92.631 93.8156 92.6696C95.9669 93.5097 98.3488 93.9415 100.862 93.8796C109.372 93.6745 116.282 87.2967 117.461 79.1087L89.5103 77.663C88.2189 77.5962 87.1 76.7426 86.6901 75.5117C86.2802 74.2807 86.6629 72.9234 87.6548 72.0907L125.77 40.0895C124.69 39.8449 123.525 39.9916 122.5 40.5739L122.497 40.5759L80.3628 64.4418ZM80.4396 75.3828C80.4396 75.3828 80.4167 75.379 80.3656 75.3578C80.413 75.3699 80.4396 75.3828 80.4396 75.3828Z" fill="#353535"/>
<path d="M68.6064 65.6958C68.6064 65.6958 68.669 65.5259 68.6482 65.4409C68.0009 62.9124 65.4326 61.3826 62.9478 62.0625C60.4631 62.7212 58.9597 65.3346 59.6279 67.8631C60.1916 70.0516 62.2379 71.199 64.3886 71.114C63.8875 68.6705 65.015 65.3984 68.6273 65.6958H68.6064Z" fill="#353535"/>
<path fill-rule="evenodd" clip-rule="evenodd" d="M67.5014 65.7247C67.2338 65.764 66.9844 65.8268 66.7526 65.91C66.7003 65.9288 66.6489 65.9487 66.5984 65.9695C66.2803 66.1008 65.9976 66.2723 65.7487 66.4754C65.2153 66.9106 64.8369 67.4915 64.5972 68.1351C64.5948 68.1417 64.5923 68.1483 64.5899 68.1549C64.5899 68.155 64.5898 68.1551 64.5898 68.1552C64.5898 68.1552 64.5898 68.1553 64.5898 68.1553C64.4551 68.5222 64.3653 68.9091 64.3175 69.3009C64.2427 69.9129 64.2702 70.5366 64.3886 71.114C62.8772 71.1737 61.4173 70.6248 60.4874 69.5337C60.094 69.0722 59.7955 68.5136 59.6279 67.8631C58.9597 65.3346 60.4631 62.7212 62.9478 62.0625C65.3822 61.3964 67.8967 62.8512 68.6064 65.2882C68.6135 65.3127 68.6205 65.3374 68.6273 65.3621C68.6344 65.3882 68.6414 65.4144 68.6481 65.4408C68.6481 65.4408 68.6481 65.4408 68.6482 65.4409C68.6586 65.4834 68.6481 65.5472 68.6351 65.6003C68.6325 65.6107 68.6299 65.6207 68.6273 65.63C68.6181 65.6629 68.6093 65.6878 68.607 65.6942C68.6068 65.6942 68.6066 65.6942 68.6064 65.6942C68.6045 65.694 68.6026 65.6939 68.6006 65.6937C68.2423 65.6659 67.9086 65.6733 67.5986 65.7116C67.5659 65.7156 67.5336 65.72 67.5014 65.7247ZM68.6064 65.6958C68.6064 65.6958 68.6066 65.6953 68.607 65.6942C68.6137 65.6947 68.6205 65.6953 68.6273 65.6958H68.6064Z" fill="#353535"/>
<path d="M76.1963 37.3484L77.2148 42.3502C77.6453 44.1142 75.3446 45.4149 74.0549 44.1913L70.2473 40.8171C68.7483 39.4841 68.6075 37.1987 69.9315 35.6787C71.8004 33.4215 75.6942 34.4996 76.1963 37.3484Z" fill="#353535"/>
<path fill-rule="evenodd" clip-rule="evenodd" d="M70.2473 40.8171C68.7483 39.4841 68.6075 37.1987 69.9315 35.6787C71.8004 33.4215 75.6942 34.4996 76.1963 37.3484L77.2148 42.3502C77.6453 44.1142 75.3446 45.4149 74.0549 44.1913L70.2473 40.8171ZM71.5589 40.5493C71.6942 40.6141 71.8236 40.6616 71.9402 40.6931C72.5808 40.8664 73.7672 40.8129 74.6641 39.8319C74.68 39.8146 74.6957 39.797 74.7113 39.7791C74.7298 39.7567 74.7479 39.734 74.7656 39.711C75.0721 39.3129 75.2499 38.8438 75.2984 38.3626C74.6501 38.3661 74.0504 38.5085 73.567 38.7113C73.5262 38.7284 73.4862 38.746 73.4471 38.7639C73.3425 38.8119 73.2441 38.8627 73.1527 38.9153C72.6026 39.2318 71.9936 39.7937 71.5589 40.5493Z" fill="#353535"/>
<path d="M90.6644 44.2587C92.7329 44.2587 94.4097 42.5756 94.4097 40.4995C94.4097 38.4233 92.7329 36.7403 90.6644 36.7403C88.596 36.7403 86.9192 38.4233 86.9192 40.4995C86.9192 42.5756 88.596 44.2587 90.6644 44.2587Z" fill="#353535"/>
<path fill-rule="evenodd" clip-rule="evenodd" d="M90.6644 37.9469C89.2599 37.9469 88.1213 39.0897 88.1213 40.4995C88.1213 41.9092 89.2599 43.052 90.6644 43.052C92.0689 43.052 93.2075 41.9092 93.2075 40.4995C93.2075 39.0897 92.0689 37.9469 90.6644 37.9469ZM94.4097 40.4995C94.4097 42.5756 92.7329 44.2587 90.6644 44.2587C88.596 44.2587 86.9192 42.5756 86.9192 40.4995C86.9192 38.4233 88.596 36.7403 90.6644 36.7403C92.7329 36.7403 94.4097 38.4233 94.4097 40.4995Z" fill="#353535"/>
<path d="M83.0685 50.711C84.2604 50.711 85.2267 49.7411 85.2267 48.5447C85.2267 47.3482 84.2604 46.3784 83.0685 46.3784C81.8765 46.3784 80.9102 47.3482 80.9102 48.5447C80.9102 49.7411 81.8765 50.711 83.0685 50.711Z" fill="#353535"/>
</svg>
