<?xml version="1.0" encoding="UTF-8"?>
<svg id="Calque_2" xmlns="http://www.w3.org/2000/svg" version="1.1" viewBox="0 0 283.46 283.46">
  <!-- Generator: Adobe Illustrator 30.2.1, SVG Export Plug-In . SVG Version: 2.1.1 Build 1)  -->
  <defs>
    <style>
      .st0, .st1 {
        fill: #353435;
      }

      .st1 {
        fill-rule: evenodd;
      }

      .st2 {
        fill: #fff;
      }
    </style>
  </defs>
  <circle class="st2" cx="141.73" cy="141.73" r="141.27"/>
  <g>
    <path class="st1" d="M217.35,59.57c9.3-5.28,21.03-2.85,27.51,5.67,2,2.63,1.59,6.39-.95,8.51l-68.93,57.87,45.37,2.35c3.23.17,5.78,2.8,5.86,6.04.61,25.56-19.5,46.8-44.98,47.41-1.44.04-2.87,0-4.29-.08,2.25,5.79,4.67,13.96,6.95,25.52.66,3.36-1.51,6.62-4.85,7.28-3.34.66-6.59-1.52-7.26-4.87-3.07-15.52-6.24-23.86-8.43-28.16-1-1.97-1.77-3.03-2.17-3.51-13.81-5.94-24.09-18.34-26.5-34.09-1.33-.69-2.65-1.6-3.87-2.61-2.9-2.39-5.95-5.89-7.94-10.14-2.01-4.3-3.07-9.69-1.32-15.37,1.3-4.21,3.99-8.05,8.05-11.44-9.73-13.35-28.27-16.87-42.26-7.79l-.06.04c-.11.08-.26.18-.45.31-.38.25-.92.61-1.6,1.03-1.36.85-3.3,2-5.69,3.22-4.74,2.43-11.44,5.28-19.01,6.68h0c-.58.11-.86.34-1.04.57-.22.28-.41.73-.44,1.29-.03.56.12,1.02.31,1.32.15.24.41.5.98.67h.02c1.82.55,3.33.48,4.65-.09,2.27-.98,4.89-.51,6.68,1.19,1.79,1.7,2.4,4.31,1.55,6.63-.43,1.18-.63,4.32.28,8.8.86,4.24,2.51,8.61,4.61,11.86h0s11.09,17.07,11.09,17.07h0c7.83,12.04,4.53,28.22-7.43,36.17h0s-30.43,20.33-30.43,20.33c-2.84,1.9-6.67,1.12-8.56-1.73-1.89-2.85-1.12-6.7,1.72-8.59l30.45-20.33h.01c6.29-4.19,8.04-12.72,3.91-19.07l-11.1-17.08c-3.13-4.82-5.27-10.72-6.37-16.15-.42-2.05-.72-4.22-.84-6.36-1.28-.14-2.53-.41-3.74-.77-14.3-4.23-13.2-25.21,1.44-27.93h0c5.99-1.11,11.52-3.42,15.62-5.52,2.03-1.04,3.67-2.01,4.78-2.7.55-.35.97-.62,1.25-.81.14-.09.23-.16.29-.2l.06-.04c.07-.05.14-.1.22-.15,19.75-12.91,46.09-7.74,59.55,11.51l77.26-43.77M140.68,117.23c-4.92,3.03-6.71,5.85-7.33,7.85-.62,2.01-.36,4.16.7,6.42,1.08,2.32,2.87,4.41,4.59,5.82.74.61,1.36,1,1.76,1.21,1.29,0,2.56.41,3.62,1.19,1.5,1.09,2.42,2.8,2.53,4.66.73,12.97,8.7,23.44,20.04,28.08.17.06.34.13.51.2,4.22,1.65,8.9,2.5,13.84,2.38,16.71-.4,30.28-12.93,32.59-29l-54.88-2.84c-2.54-.13-4.73-1.81-5.54-4.22-.8-2.42-.05-5.08,1.89-6.72l74.84-62.84c-2.12-.48-4.41-.19-6.42.95h0s-82.74,46.87-82.74,46.87ZM140.83,138.71s-.04,0-.15-.05c.09.02.15.05.15.05Z"/>
    <path class="st0" d="M117.6,119.69s.12-.33.08-.5c-1.27-4.96-6.31-7.97-11.19-6.63-4.88,1.29-7.83,6.43-6.52,11.39,1.11,4.3,5.13,6.55,9.35,6.38-.98-4.8,1.23-11.22,8.32-10.64h-.04Z"/>
    <path class="st1" d="M115.43,119.75c-.53.08-1.02.2-1.47.36-.1.04-.2.08-.3.12-.62.26-1.18.59-1.67.99-1.05.85-1.79,2-2.26,3.26,0,.01,0,.03-.01.04,0,0,0,0,0,0h0c-.26.72-.44,1.48-.53,2.25-.15,1.2-.09,2.43.14,3.56-2.97.12-5.83-.96-7.66-3.1-.77-.91-1.36-2-1.69-3.28-1.31-4.96,1.64-10.1,6.52-11.39,4.78-1.31,9.72,1.55,11.11,6.33.01.05.03.1.04.15.01.05.03.1.04.15h0c.02.08,0,.21-.03.31,0,.02-.01.04-.02.06-.02.06-.04.11-.04.13h0s0,0-.01,0c-.7-.05-1.36-.04-1.97.04-.06,0-.13.02-.19.03ZM117.6,119.69s0,0,0,0c.01,0,.03,0,.04,0h-.04Z"/>
    <path class="st0" d="M132.5,64.03l2,9.82c.85,3.46-3.67,6.02-6.2,3.62l-7.48-6.63c-2.94-2.62-3.22-7.11-.62-10.09,3.67-4.43,11.32-2.32,12.3,3.28Z"/>
    <path class="st1" d="M120.82,70.84c-2.94-2.62-3.22-7.11-.62-10.09,3.67-4.43,11.32-2.32,12.3,3.28l2,9.82c.85,3.46-3.67,6.02-6.2,3.62l-7.48-6.63ZM123.39,70.31c.27.13.52.22.75.28,1.26.34,3.59.24,5.35-1.69.03-.03.06-.07.09-.1.04-.04.07-.09.11-.13.6-.78.95-1.7,1.05-2.65-1.27,0-2.45.29-3.4.68-.08.03-.16.07-.24.1-.21.09-.4.19-.58.3-1.08.62-2.28,1.72-3.13,3.21Z"/>
    <path class="st0" d="M160.91,77.6c4.06,0,7.35-3.3,7.35-7.38s-3.29-7.38-7.35-7.38-7.35,3.3-7.35,7.38,3.29,7.38,7.35,7.38Z"/>
    <path class="st1" d="M160.91,65.2c-2.76,0-4.99,2.24-4.99,5.01s2.24,5.01,4.99,5.01,4.99-2.24,4.99-5.01-2.24-5.01-4.99-5.01ZM168.26,70.22c0,4.08-3.29,7.38-7.35,7.38s-7.35-3.3-7.35-7.38,3.29-7.38,7.35-7.38,7.35,3.3,7.35,7.38Z"/>
    <path class="st0" d="M145.99,90.27c2.34,0,4.24-1.9,4.24-4.25s-1.9-4.25-4.24-4.25-4.24,1.9-4.24,4.25,1.9,4.25,4.24,4.25Z"/>
  </g>
</svg>